solid Exported from Blender-2.76 (sub 0)
facet normal 0.000000 0.000000 -1.000000
outer loop
vertex 0.000000 0.000000 0.000000
vertex 1.060660 1.060660 0.000000
vertex 1.159516 0.951590 0.000000
endloop
endfacet
facet normal 0.000000 0.000000 -1.000000
outer loop
vertex 0.000000 0.000000 0.000000
vertex 1.159516 0.951590 0.000000
vertex 1.247204 0.833355 0.000000
endloop
endfacet
facet normal 0.000000 0.000000 -1.000000
outer loop
vertex 0.000000 0.000000 0.000000
vertex 1.247204 0.833355 0.000000
vertex 1.322882 0.707095 0.000000
endloop
endfacet
facet normal 0.000000 0.000000 -1.000000
outer loop
vertex 0.000000 0.000000 0.000000
vertex 1.322882 0.707095 0.000000
vertex 1.385819 0.574025 0.000000
endloop
endfacet
facet normal 0.000000 0.000000 -1.000000
outer loop
vertex 0.000000 0.000000 0.000000
vertex 1.385819 0.574025 0.000000
vertex 1.435410 0.435427 0.000000
endloop
endfacet
facet normal 0.000000 0.000000 -1.000000
outer loop
vertex 0.000000 0.000000 0.000000
vertex 1.435410 0.435427 0.000000
vertex 1.471178 0.292635 0.000000
endloop
endfacet
facet normal 0.000000 0.000000 -1.000000
outer loop
vertex 0.000000 0.000000 0.000000
vertex 1.471178 0.292635 0.000000
vertex 1.492777 0.147026 0.000000
endloop
endfacet
facet normal 0.000000 0.000000 -1.000000
outer loop
vertex 0.000000 0.000000 0.000000
vertex 1.492777 0.147026 0.000000
vertex 1.500000 -0.000000 0.000000
endloop
endfacet
facet normal 0.000000 0.000000 -1.000000
outer loop
vertex 0.000000 0.000000 0.000000
vertex 1.500000 -0.000000 0.000000
vertex 1.492777 -0.147026 0.000000
endloop
endfacet
facet normal 0.000000 0.000000 -1.000000
outer loop
vertex 0.000000 0.000000 0.000000
vertex 1.492777 -0.147026 0.000000
vertex 1.471178 -0.292636 0.000000
endloop
endfacet
facet normal 0.000000 0.000000 -1.000000
outer loop
vertex 0.000000 0.000000 0.000000
vertex 1.471178 -0.292636 0.000000
vertex 1.435410 -0.435427 0.000000
endloop
endfacet
facet normal 0.000000 0.000000 -1.000000
outer loop
vertex 0.000000 0.000000 0.000000
vertex 1.435410 -0.435427 0.000000
vertex 1.385819 -0.574026 0.000000
endloop
endfacet
facet normal 0.000000 0.000000 -1.000000
outer loop
vertex 0.000000 0.000000 0.000000
vertex 1.385819 -0.574026 0.000000
vertex 1.322882 -0.707096 0.000000
endloop
endfacet
facet normal 0.000000 0.000000 -1.000000
outer loop
vertex 0.000000 0.000000 0.000000
vertex 1.322882 -0.707096 0.000000
vertex 1.247204 -0.833356 0.000000
endloop
endfacet
facet normal 0.000000 0.000000 -1.000000
outer loop
vertex 0.000000 0.000000 0.000000
vertex 1.247204 -0.833356 0.000000
vertex 1.159515 -0.951590 0.000000
endloop
endfacet
facet normal 0.000000 0.000000 -1.000000
outer loop
vertex 0.000000 0.000000 0.000000
vertex 1.159515 -0.951590 0.000000
vertex 1.060660 -1.060661 0.000000
endloop
endfacet
facet normal 0.000000 0.000000 -1.000000
outer loop
vertex 0.000000 0.000000 0.000000
vertex 1.060660 -1.060661 0.000000
vertex 0.951589 -1.159516 0.000000
endloop
endfacet
facet normal 0.000000 0.000000 -1.000000
outer loop
vertex 0.000000 0.000000 0.000000
vertex 0.951589 -1.159516 0.000000
vertex 0.833355 -1.247205 0.000000
endloop
endfacet
facet normal 0.000000 0.000000 -1.000000
outer loop
vertex 0.000000 0.000000 0.000000
vertex 0.833355 -1.247205 0.000000
vertex 0.707094 -1.322882 0.000000
endloop
endfacet
facet normal 0.000000 0.000000 -1.000000
outer loop
vertex 0.000000 0.000000 0.000000
vertex 0.707094 -1.322882 0.000000
vertex 0.574024 -1.385820 0.000000
endloop
endfacet
facet normal 0.000000 0.000000 -1.000000
outer loop
vertex 0.000000 0.000000 0.000000
vertex 0.574024 -1.385820 0.000000
vertex 0.435426 -1.435411 0.000000
endloop
endfacet
facet normal 0.000000 0.000000 -1.000000
outer loop
vertex 0.000000 0.000000 0.000000
vertex 0.435426 -1.435411 0.000000
vertex 0.292634 -1.471178 0.000000
endloop
endfacet
facet normal 0.000000 0.000000 -1.000000
outer loop
vertex 0.000000 0.000000 0.000000
vertex 0.292634 -1.471178 0.000000
vertex 0.147025 -1.492777 0.000000
endloop
endfacet
facet normal 0.000000 0.000000 -1.000000
outer loop
vertex 0.000000 0.000000 0.000000
vertex 0.147025 -1.492777 0.000000
vertex -0.000001 -1.500000 0.000000
endloop
endfacet
facet normal 0.000000 0.000000 -1.000000
outer loop
vertex 0.000000 0.000000 0.000000
vertex -0.000001 -1.500000 0.000000
vertex -0.147027 -1.492777 0.000000
endloop
endfacet
facet normal 0.000000 0.000000 -1.000000
outer loop
vertex 0.000000 0.000000 0.000000
vertex -0.147027 -1.492777 0.000000
vertex -0.292637 -1.471178 0.000000
endloop
endfacet
facet normal 0.000000 0.000000 -1.000000
outer loop
vertex 0.000000 0.000000 0.000000
vertex -0.292637 -1.471178 0.000000
vertex -0.435428 -1.435410 0.000000
endloop
endfacet
facet normal 0.000000 0.000000 -1.000000
outer loop
vertex 0.000000 0.000000 0.000000
vertex -0.435428 -1.435410 0.000000
vertex -0.574026 -1.385819 0.000000
endloop
endfacet
facet normal 0.000000 0.000000 -1.000000
outer loop
vertex 0.000000 0.000000 0.000000
vertex -0.574026 -1.385819 0.000000
vertex -0.707096 -1.322881 0.000000
endloop
endfacet
facet normal 0.000000 0.000000 -1.000000
outer loop
vertex 0.000000 0.000000 0.000000
vertex -0.707096 -1.322881 0.000000
vertex -0.833357 -1.247204 0.000000
endloop
endfacet
facet normal 0.000000 0.000000 -1.000000
outer loop
vertex 0.000000 0.000000 0.000000
vertex -0.833357 -1.247204 0.000000
vertex -0.951591 -1.159515 0.000000
endloop
endfacet
facet normal 0.000000 0.000000 -1.000000
outer loop
vertex 0.000000 0.000000 0.000000
vertex -0.951591 -1.159515 0.000000
vertex -1.060661 -1.060659 0.000000
endloop
endfacet
facet normal 0.000000 0.000000 -1.000000
outer loop
vertex 0.000000 0.000000 0.000000
vertex -1.060661 -1.060659 0.000000
vertex -1.159517 -0.951589 0.000000
endloop
endfacet
facet normal 0.000000 0.000000 -1.000000
outer loop
vertex 0.000000 0.000000 0.000000
vertex -1.159517 -0.951589 0.000000
vertex -1.247205 -0.833354 0.000000
endloop
endfacet
facet normal 0.000000 0.000000 -1.000000
outer loop
vertex 0.000000 0.000000 0.000000
vertex -1.247205 -0.833354 0.000000
vertex -1.322882 -0.707094 0.000000
endloop
endfacet
facet normal 0.000000 0.000000 -1.000000
outer loop
vertex 0.000000 0.000000 0.000000
vertex -1.322882 -0.707094 0.000000
vertex -1.385819 -0.574025 0.000000
endloop
endfacet
facet normal 0.000000 0.000000 -1.000000
outer loop
vertex 0.000000 0.000000 0.000000
vertex -1.385819 -0.574025 0.000000
vertex -1.435411 -0.435427 0.000000
endloop
endfacet
facet normal 0.000000 0.000000 -1.000000
outer loop
vertex 0.000000 0.000000 0.000000
vertex -1.435411 -0.435427 0.000000
vertex -1.471178 -0.292636 0.000000
endloop
endfacet
facet normal 0.000000 0.000000 -1.000000
outer loop
vertex 0.000000 0.000000 0.000000
vertex -1.471178 -0.292636 0.000000
vertex -1.492777 -0.147026 0.000000
endloop
endfacet
facet normal 0.000000 0.000000 -1.000000
outer loop
vertex 0.000000 0.000000 0.000000
vertex -1.492777 -0.147026 0.000000
vertex -1.500000 -0.000001 0.000000
endloop
endfacet
facet normal 0.000000 0.000000 -1.000000
outer loop
vertex 0.000000 0.000000 0.000000
vertex -1.500000 -0.000001 0.000000
vertex -1.492777 0.147025 0.000000
endloop
endfacet
facet normal 0.000000 0.000000 -1.000000
outer loop
vertex 0.000000 0.000000 0.000000
vertex -1.492777 0.147025 0.000000
vertex -1.471178 0.292634 0.000000
endloop
endfacet
facet normal 0.000000 0.000000 -1.000000
outer loop
vertex 0.000000 0.000000 0.000000
vertex -1.471178 0.292634 0.000000
vertex -1.435411 0.435425 0.000000
endloop
endfacet
facet normal 0.000000 0.000000 -1.000000
outer loop
vertex 0.000000 0.000000 0.000000
vertex -1.435411 0.435425 0.000000
vertex -1.385820 0.574023 0.000000
endloop
endfacet
facet normal 0.000000 0.000000 -1.000000
outer loop
vertex 0.000000 0.000000 0.000000
vertex -1.385820 0.574023 0.000000
vertex -1.322883 0.707093 0.000000
endloop
endfacet
facet normal 0.000000 0.000000 -1.000000
outer loop
vertex 0.000000 0.000000 0.000000
vertex -1.322883 0.707093 0.000000
vertex -1.247206 0.833353 0.000000
endloop
endfacet
facet normal 0.000000 0.000000 -1.000000
outer loop
vertex 0.000000 0.000000 0.000000
vertex -1.247206 0.833353 0.000000
vertex -1.159517 0.951588 0.000000
endloop
endfacet
facet normal 0.000000 0.000000 -1.000000
outer loop
vertex 0.000000 0.000000 0.000000
vertex -1.159517 0.951588 0.000000
vertex -1.060662 1.060658 0.000000
endloop
endfacet
facet normal 0.000000 0.000000 -1.000000
outer loop
vertex 0.000000 0.000000 0.000000
vertex -1.060662 1.060658 0.000000
vertex -0.951593 1.159514 0.000000
endloop
endfacet
facet normal 0.000000 0.000000 -1.000000
outer loop
vertex 0.000000 0.000000 0.000000
vertex -0.951593 1.159514 0.000000
vertex -0.833358 1.247202 0.000000
endloop
endfacet
facet normal 0.000000 0.000000 -1.000000
outer loop
vertex 0.000000 0.000000 0.000000
vertex -0.833358 1.247202 0.000000
vertex -0.707099 1.322880 0.000000
endloop
endfacet
facet normal 0.000000 0.000000 -1.000000
outer loop
vertex 0.000000 0.000000 0.000000
vertex -0.707099 1.322880 0.000000
vertex -0.574029 1.385818 0.000000
endloop
endfacet
facet normal 0.000000 0.000000 -1.000000
outer loop
vertex 0.000000 0.000000 0.000000
vertex -0.574029 1.385818 0.000000
vertex -0.435431 1.435409 0.000000
endloop
endfacet
facet normal 0.000000 0.000000 -1.000000
outer loop
vertex 0.000000 0.000000 0.000000
vertex -0.435431 1.435409 0.000000
vertex -0.292640 1.471177 0.000000
endloop
endfacet
facet normal 0.000000 0.000000 -1.000000
outer loop
vertex 0.000000 0.000000 0.000000
vertex -0.292640 1.471177 0.000000
vertex -0.147031 1.492777 0.000000
endloop
endfacet
facet normal 0.000000 0.000000 -1.000000
outer loop
vertex 0.000000 0.000000 0.000000
vertex -0.147031 1.492777 0.000000
vertex -0.000005 1.500000 0.000000
endloop
endfacet
facet normal 0.000000 0.000000 -1.000000
outer loop
vertex 0.000000 0.000000 0.000000
vertex -0.000005 1.500000 0.000000
vertex 0.147020 1.492778 0.000000
endloop
endfacet
facet normal 0.000000 0.000000 -1.000000
outer loop
vertex 0.000000 0.000000 0.000000
vertex 0.147020 1.492778 0.000000
vertex 0.292630 1.471179 0.000000
endloop
endfacet
facet normal 0.000000 0.000000 -1.000000
outer loop
vertex 0.000000 0.000000 0.000000
vertex 0.292630 1.471179 0.000000
vertex 0.435421 1.435412 0.000000
endloop
endfacet
facet normal 0.000000 0.000000 -1.000000
outer loop
vertex 0.000000 0.000000 0.000000
vertex 0.435421 1.435412 0.000000
vertex 0.574019 1.385822 0.000000
endloop
endfacet
facet normal 0.000000 0.000000 -1.000000
outer loop
vertex 0.000000 0.000000 0.000000
vertex 0.574019 1.385822 0.000000
vertex 0.707089 1.322885 0.000000
endloop
endfacet
facet normal 0.000000 0.000000 -1.000000
outer loop
vertex 0.000000 0.000000 0.000000
vertex 0.707089 1.322885 0.000000
vertex 0.833349 1.247208 0.000000
endloop
endfacet
facet normal 0.000000 0.000000 -1.000000
outer loop
vertex 0.000000 0.000000 0.000000
vertex 0.833349 1.247208 0.000000
vertex 0.951584 1.159521 0.000000
endloop
endfacet
facet normal 0.000000 0.000000 -1.000000
outer loop
vertex 1.060660 1.060660 0.000000
vertex 0.000000 0.000000 0.000000
vertex 0.951584 1.159521 0.000000
endloop
endfacet
endsolid Exported from Blender-2.76 (sub 0)
