solid Exported from Blender-2.76 (sub 0)
facet normal -0.000002 0.000000 1.000000
outer loop
vertex 0.000000 0.000000 15.000000
vertex 1.159510 0.951596 15.000000
vertex 1.060655 1.060666 15.000000
endloop
endfacet
facet normal 0.000002 0.000000 1.000000
outer loop
vertex 0.000000 0.000000 15.000000
vertex 1.247200 0.833362 15.000000
vertex 1.159510 0.951596 15.000000
endloop
endfacet
facet normal -0.000002 0.000000 1.000000
outer loop
vertex 0.000000 0.000000 15.000000
vertex 1.322878 0.707103 15.000000
vertex 1.247200 0.833362 15.000000
endloop
endfacet
facet normal 0.000002 0.000000 1.000000
outer loop
vertex 0.000000 0.000000 15.000000
vertex 1.385816 0.574033 15.000000
vertex 1.322878 0.707103 15.000000
endloop
endfacet
facet normal -0.000004 0.000000 1.000000
outer loop
vertex 0.000000 0.000000 15.000000
vertex 1.435408 0.435436 15.000000
vertex 1.385816 0.574033 15.000000
endloop
endfacet
facet normal 0.000002 0.000000 1.000000
outer loop
vertex 0.000000 0.000000 15.000000
vertex 1.471176 0.292645 15.000000
vertex 1.435408 0.435436 15.000000
endloop
endfacet
facet normal 0.000000 0.000000 1.000000
outer loop
vertex 0.000000 0.000000 15.000000
vertex 1.492776 0.147036 15.000000
vertex 1.471176 0.292645 15.000000
endloop
endfacet
facet normal 0.000000 0.000000 1.000000
outer loop
vertex 0.000000 0.000000 15.000000
vertex 1.500000 0.000010 15.000000
vertex 1.492776 0.147036 15.000000
endloop
endfacet
facet normal 0.000000 0.000000 1.000000
outer loop
vertex 0.000000 0.000000 15.000000
vertex 1.492778 -0.147015 15.000000
vertex 1.500000 0.000010 15.000000
endloop
endfacet
facet normal 0.000002 0.000000 1.000000
outer loop
vertex 0.000000 0.000000 15.000000
vertex 1.471180 -0.292626 15.000000
vertex 1.492778 -0.147015 15.000000
endloop
endfacet
facet normal 0.000000 0.000000 1.000000
outer loop
vertex 0.000000 0.000000 15.000000
vertex 1.435413 -0.435418 15.000000
vertex 1.471180 -0.292626 15.000000
endloop
endfacet
facet normal 0.000000 0.000000 1.000000
outer loop
vertex 0.000000 0.000000 15.000000
vertex 1.385823 -0.574017 15.000000
vertex 1.435413 -0.435418 15.000000
endloop
endfacet
facet normal -0.000002 0.000000 1.000000
outer loop
vertex 0.000000 0.000000 15.000000
vertex 1.322886 -0.707087 15.000000
vertex 1.385823 -0.574017 15.000000
endloop
endfacet
facet normal 0.000002 0.000000 1.000000
outer loop
vertex 0.000000 0.000000 15.000000
vertex 1.247209 -0.833348 15.000000
vertex 1.322886 -0.707087 15.000000
endloop
endfacet
facet normal -0.000002 0.000000 1.000000
outer loop
vertex 0.000000 0.000000 15.000000
vertex 1.159521 -0.951584 15.000000
vertex 1.247209 -0.833348 15.000000
endloop
endfacet
facet normal 0.000002 0.000000 1.000000
outer loop
vertex 0.000000 0.000000 15.000000
vertex 1.060665 -1.060655 15.000000
vertex 1.159521 -0.951584 15.000000
endloop
endfacet
facet normal -0.000005 0.000000 1.000000
outer loop
vertex 0.000000 0.000000 15.000000
vertex 0.951595 -1.159511 15.000000
vertex 1.060665 -1.060655 15.000000
endloop
endfacet
facet normal 0.000010 0.000000 1.000000
outer loop
vertex 0.000000 0.000000 15.000000
vertex 0.833361 -1.247201 15.000000
vertex 0.951595 -1.159511 15.000000
endloop
endfacet
facet normal -0.000013 0.000000 1.000000
outer loop
vertex 0.000000 0.000000 15.000000
vertex 0.707101 -1.322879 15.000000
vertex 0.833361 -1.247201 15.000000
endloop
endfacet
facet normal 0.000012 0.000000 1.000000
outer loop
vertex 0.000000 0.000000 15.000000
vertex 0.574031 -1.385817 15.000000
vertex 0.707101 -1.322879 15.000000
endloop
endfacet
facet normal -0.000010 0.000000 1.000000
outer loop
vertex 0.000000 0.000000 15.000000
vertex 0.435432 -1.435409 15.000000
vertex 0.574031 -1.385817 15.000000
endloop
endfacet
facet normal 0.000013 0.000000 1.000000
outer loop
vertex 0.000000 0.000000 15.000000
vertex 0.292640 -1.471177 15.000000
vertex 0.435432 -1.435409 15.000000
endloop
endfacet
facet normal -0.000010 0.000000 1.000000
outer loop
vertex 0.000000 0.000000 15.000000
vertex 0.147030 -1.492777 15.000000
vertex 0.292640 -1.471177 15.000000
endloop
endfacet
facet normal 0.000002 0.000000 1.000000
outer loop
vertex 0.000000 0.000000 15.000000
vertex 0.000004 -1.500000 15.000000
vertex 0.147030 -1.492777 15.000000
endloop
endfacet
facet normal 0.000005 0.000000 1.000000
outer loop
vertex 0.000000 0.000000 15.000000
vertex -0.147022 -1.492777 15.000000
vertex 0.000004 -1.500000 15.000000
endloop
endfacet
facet normal -0.000001 0.000000 1.000000
outer loop
vertex 0.000000 0.000000 15.000000
vertex -0.292632 -1.471179 15.000000
vertex -0.147022 -1.492777 15.000000
endloop
endfacet
facet normal -0.000005 0.000000 1.000000
outer loop
vertex 0.000000 0.000000 15.000000
vertex -0.435424 -1.435411 15.000000
vertex -0.292632 -1.471179 15.000000
endloop
endfacet
facet normal 0.000000 0.000000 1.000000
outer loop
vertex 0.000000 0.000000 15.000000
vertex -0.574023 -1.385820 15.000000
vertex -0.435424 -1.435411 15.000000
endloop
endfacet
facet normal -0.000005 0.000000 1.000000
outer loop
vertex 0.000000 0.000000 15.000000
vertex -0.707093 -1.322883 15.000000
vertex -0.574023 -1.385820 15.000000
endloop
endfacet
facet normal 0.000003 0.000000 1.000000
outer loop
vertex 0.000000 0.000000 15.000000
vertex -0.833354 -1.247205 15.000000
vertex -0.707093 -1.322883 15.000000
endloop
endfacet
facet normal -0.000003 0.000000 1.000000
outer loop
vertex 0.000000 0.000000 15.000000
vertex -0.951589 -1.159517 15.000000
vertex -0.833354 -1.247205 15.000000
endloop
endfacet
facet normal 0.000002 0.000000 1.000000
outer loop
vertex 0.000000 0.000000 15.000000
vertex -1.060660 -1.060661 15.000000
vertex -0.951589 -1.159517 15.000000
endloop
endfacet
facet normal 0.000002 0.000000 1.000000
outer loop
vertex 0.000000 0.000000 15.000000
vertex -1.159515 -0.951590 15.000000
vertex -1.060660 -1.060661 15.000000
endloop
endfacet
facet normal 0.000006 0.000000 1.000000
outer loop
vertex 0.000000 0.000000 15.000000
vertex -1.247204 -0.833355 15.000000
vertex -1.159515 -0.951590 15.000000
endloop
endfacet
facet normal -0.000008 0.000000 1.000000
outer loop
vertex 0.000000 0.000000 15.000000
vertex -1.322882 -0.707095 15.000000
vertex -1.247204 -0.833355 15.000000
endloop
endfacet
facet normal 0.000005 0.000000 1.000000
outer loop
vertex 0.000000 0.000000 15.000000
vertex -1.385820 -0.574024 15.000000
vertex -1.322882 -0.707095 15.000000
endloop
endfacet
facet normal 0.000000 0.000000 1.000000
outer loop
vertex 0.000000 0.000000 15.000000
vertex -1.435411 -0.435426 15.000000
vertex -1.385820 -0.574024 15.000000
endloop
endfacet
facet normal -0.000002 0.000000 1.000000
outer loop
vertex 0.000000 0.000000 15.000000
vertex -1.471178 -0.292634 15.000000
vertex -1.435411 -0.435426 15.000000
endloop
endfacet
facet normal 0.000000 0.000000 1.000000
outer loop
vertex 0.000000 0.000000 15.000000
vertex -1.492777 -0.147024 15.000000
vertex -1.471178 -0.292634 15.000000
endloop
endfacet
facet normal 0.000000 0.000000 1.000000
outer loop
vertex 0.000000 0.000000 15.000000
vertex -1.500000 0.000002 15.000000
vertex -1.492777 -0.147024 15.000000
endloop
endfacet
facet normal 0.000000 0.000000 1.000000
outer loop
vertex 0.000000 0.000000 15.000000
vertex -1.492777 0.147029 15.000000
vertex -1.500000 0.000002 15.000000
endloop
endfacet
facet normal 0.000002 0.000000 1.000000
outer loop
vertex 0.000000 0.000000 15.000000
vertex -1.471177 0.292639 15.000000
vertex -1.492777 0.147029 15.000000
endloop
endfacet
facet normal 0.000000 0.000000 1.000000
outer loop
vertex 0.000000 0.000000 15.000000
vertex -1.435409 0.435431 15.000000
vertex -1.471177 0.292639 15.000000
endloop
endfacet
facet normal 0.000000 0.000000 1.000000
outer loop
vertex 0.000000 0.000000 15.000000
vertex -1.385818 0.574029 15.000000
vertex -1.435409 0.435431 15.000000
endloop
endfacet
facet normal -0.000002 0.000000 1.000000
outer loop
vertex 0.000000 0.000000 15.000000
vertex -1.322880 0.707099 15.000000
vertex -1.385818 0.574029 15.000000
endloop
endfacet
facet normal 0.000004 0.000000 1.000000
outer loop
vertex 0.000000 0.000000 15.000000
vertex -1.247202 0.833359 15.000000
vertex -1.322880 0.707099 15.000000
endloop
endfacet
facet normal 0.000000 0.000000 1.000000
outer loop
vertex 0.000000 0.000000 15.000000
vertex -1.159512 0.951594 15.000000
vertex -1.247202 0.833359 15.000000
endloop
endfacet
facet normal -0.000004 0.000000 1.000000
outer loop
vertex 0.000000 0.000000 15.000000
vertex -1.060656 1.060664 15.000000
vertex -1.159512 0.951594 15.000000
endloop
endfacet
facet normal -0.000002 0.000000 1.000000
outer loop
vertex 0.000000 0.000000 15.000000
vertex -0.951585 1.159520 15.000000
vertex -1.060656 1.060664 15.000000
endloop
endfacet
facet normal -0.000001 0.000000 1.000000
outer loop
vertex 0.000000 0.000000 15.000000
vertex -0.833350 1.247208 15.000000
vertex -0.951585 1.159520 15.000000
endloop
endfacet
facet normal 0.000008 0.000000 1.000000
outer loop
vertex 0.000000 0.000000 15.000000
vertex -0.707089 1.322885 15.000000
vertex -0.833350 1.247208 15.000000
endloop
endfacet
facet normal -0.000002 0.000000 1.000000
outer loop
vertex 0.000000 0.000000 15.000000
vertex -0.574018 1.385822 15.000000
vertex -0.707089 1.322885 15.000000
endloop
endfacet
facet normal 0.000004 0.000000 1.000000
outer loop
vertex 0.000000 0.000000 15.000000
vertex -0.435419 1.435413 15.000000
vertex -0.574018 1.385822 15.000000
endloop
endfacet
facet normal -0.000001 0.000000 1.000000
outer loop
vertex 0.000000 0.000000 15.000000
vertex -0.292627 1.471179 15.000000
vertex -0.435419 1.435413 15.000000
endloop
endfacet
facet normal 0.000003 0.000000 1.000000
outer loop
vertex 0.000000 0.000000 15.000000
vertex -0.147017 1.492778 15.000000
vertex -0.292627 1.471179 15.000000
endloop
endfacet
facet normal -0.000008 0.000000 1.000000
outer loop
vertex 0.000000 0.000000 15.000000
vertex 0.000009 1.500000 15.000000
vertex -0.147017 1.492778 15.000000
endloop
endfacet
facet normal 0.000006 0.000000 1.000000
outer loop
vertex 0.000000 0.000000 15.000000
vertex 0.147035 1.492776 15.000000
vertex 0.000009 1.500000 15.000000
endloop
endfacet
facet normal -0.000005 0.000000 1.000000
outer loop
vertex 0.000000 0.000000 15.000000
vertex 0.292645 1.471176 15.000000
vertex 0.147035 1.492776 15.000000
endloop
endfacet
facet normal 0.000000 0.000000 1.000000
outer loop
vertex 0.000000 0.000000 15.000000
vertex 0.435437 1.435408 15.000000
vertex 0.292645 1.471176 15.000000
endloop
endfacet
facet normal -0.000005 0.000000 1.000000
outer loop
vertex 0.000000 0.000000 15.000000
vertex 0.574035 1.385815 15.000000
vertex 0.435437 1.435408 15.000000
endloop
endfacet
facet normal -0.000001 0.000000 1.000000
outer loop
vertex 0.000000 0.000000 15.000000
vertex 0.707105 1.322877 15.000000
vertex 0.574035 1.385815 15.000000
endloop
endfacet
facet normal 0.000006 0.000000 1.000000
outer loop
vertex 0.000000 0.000000 15.000000
vertex 0.833365 1.247198 15.000000
vertex 0.707105 1.322877 15.000000
endloop
endfacet
facet normal -0.000003 0.000000 1.000000
outer loop
vertex 0.000000 0.000000 15.000000
vertex 0.951599 1.159508 15.000000
vertex 0.833365 1.247198 15.000000
endloop
endfacet
facet normal 0.000005 0.000000 1.000000
outer loop
vertex 0.000000 0.000000 15.000000
vertex 1.060655 1.060666 15.000000
vertex 0.951599 1.159508 15.000000
endloop
endfacet
endsolid Exported from Blender-2.76 (sub 0)
