solid wall
 facet normal 0.0980165 0.995185 -0
  outer loop
   vertex 0 0.0015 -0.005
   vertex 0 0.0015 0.005
   vertex 0.000292636 0.00147118 0.005
  endloop
 endfacet
 facet normal 0.0980165 0.995185 0
  outer loop
   vertex 0.000292636 0.00147118 0.005
   vertex 0.000292636 0.00147118 -0.005
   vertex 0 0.0015 -0.005
  endloop
 endfacet
 facet normal 0.290287 0.95694 -0
  outer loop
   vertex 0.000292636 0.00147118 -0.005
   vertex 0.000292636 0.00147118 0.005
   vertex 0.000574025 0.00138582 0.005
  endloop
 endfacet
 facet normal 0.290287 0.95694 0
  outer loop
   vertex 0.000574025 0.00138582 0.005
   vertex 0.000574025 0.00138582 -0.005
   vertex 0.000292636 0.00147118 -0.005
  endloop
 endfacet
 facet normal 0.471397 0.881921 -0
  outer loop
   vertex 0.000574025 0.00138582 -0.005
   vertex 0.000574025 0.00138582 0.005
   vertex 0.000833355 0.0012472 0.005
  endloop
 endfacet
 facet normal 0.471397 0.881921 0
  outer loop
   vertex 0.000833355 0.0012472 0.005
   vertex 0.000833355 0.0012472 -0.005
   vertex 0.000574025 0.00138582 -0.005
  endloop
 endfacet
 facet normal 0.634392 0.773011 -0
  outer loop
   vertex 0.000833355 0.0012472 -0.005
   vertex 0.000833355 0.0012472 0.005
   vertex 0.00106066 0.00106066 0.005
  endloop
 endfacet
 facet normal 0.634392 0.773011 0
  outer loop
   vertex 0.00106066 0.00106066 0.005
   vertex 0.00106066 0.00106066 -0.005
   vertex 0.000833355 0.0012472 -0.005
  endloop
 endfacet
 facet normal 0.773009 0.634395 -0
  outer loop
   vertex 0.00106066 0.00106066 -0.005
   vertex 0.00106066 0.00106066 0.005
   vertex 0.00124721 0.000833355 0.005
  endloop
 endfacet
 facet normal 0.773009 0.634395 0
  outer loop
   vertex 0.00124721 0.000833355 0.005
   vertex 0.00124721 0.000833355 -0.005
   vertex 0.00106066 0.00106066 -0.005
  endloop
 endfacet
 facet normal 0.881922 0.471394 -0
  outer loop
   vertex 0.00124721 0.000833355 -0.005
   vertex 0.00124721 0.000833355 0.005
   vertex 0.00138582 0.000574025 0.005
  endloop
 endfacet
 facet normal 0.881922 0.471394 0
  outer loop
   vertex 0.00138582 0.000574025 0.005
   vertex 0.00138582 0.000574025 -0.005
   vertex 0.00124721 0.000833355 -0.005
  endloop
 endfacet
 facet normal 0.95694 0.290287 -0
  outer loop
   vertex 0.00138582 0.000574025 -0.005
   vertex 0.00138582 0.000574025 0.005
   vertex 0.00147118 0.000292636 0.005
  endloop
 endfacet
 facet normal 0.95694 0.290287 0
  outer loop
   vertex 0.00147118 0.000292636 0.005
   vertex 0.00147118 0.000292636 -0.005
   vertex 0.00138582 0.000574025 -0.005
  endloop
 endfacet
 facet normal 0.995185 0.0980165 -0
  outer loop
   vertex 0.00147118 0.000292636 -0.005
   vertex 0.00147118 0.000292636 0.005
   vertex 0.0015 0 0.005
  endloop
 endfacet
 facet normal 0.995185 0.0980165 0
  outer loop
   vertex 0.0015 0 0.005
   vertex 0.0015 0 -0.005
   vertex 0.00147118 0.000292636 -0.005
  endloop
 endfacet
 facet normal 0.995185 -0.0980169 0
  outer loop
   vertex 0.0015 0 -0.005
   vertex 0.0015 0 0.005
   vertex 0.00147118 -0.000292635 0.005
  endloop
 endfacet
 facet normal 0.995185 -0.0980169 0
  outer loop
   vertex 0.00147118 -0.000292635 0.005
   vertex 0.00147118 -0.000292635 -0.005
   vertex 0.0015 0 -0.005
  endloop
 endfacet
 facet normal 0.95694 -0.290286 0
  outer loop
   vertex 0.00147118 -0.000292635 -0.005
   vertex 0.00147118 -0.000292635 0.005
   vertex 0.00138582 -0.000574025 0.005
  endloop
 endfacet
 facet normal 0.95694 -0.290286 0
  outer loop
   vertex 0.00138582 -0.000574025 0.005
   vertex 0.00138582 -0.000574025 -0.005
   vertex 0.00147118 -0.000292635 -0.005
  endloop
 endfacet
 facet normal 0.881922 -0.471394 0
  outer loop
   vertex 0.00138582 -0.000574025 -0.005
   vertex 0.00138582 -0.000574025 0.005
   vertex 0.00124721 -0.000833355 0.005
  endloop
 endfacet
 facet normal 0.881922 -0.471394 0
  outer loop
   vertex 0.00124721 -0.000833355 0.005
   vertex 0.00124721 -0.000833355 -0.005
   vertex 0.00138582 -0.000574025 -0.005
  endloop
 endfacet
 facet normal 0.773009 -0.634395 0
  outer loop
   vertex 0.00124721 -0.000833355 -0.005
   vertex 0.00124721 -0.000833355 0.005
   vertex 0.00106066 -0.00106066 0.005
  endloop
 endfacet
 facet normal 0.773009 -0.634395 0
  outer loop
   vertex 0.00106066 -0.00106066 0.005
   vertex 0.00106066 -0.00106066 -0.005
   vertex 0.00124721 -0.000833355 -0.005
  endloop
 endfacet
 facet normal 0.634395 -0.773009 0
  outer loop
   vertex 0.00106066 -0.00106066 -0.005
   vertex 0.00106066 -0.00106066 0.005
   vertex 0.000833355 -0.00124721 0.005
  endloop
 endfacet
 facet normal 0.634395 -0.773009 0
  outer loop
   vertex 0.000833355 -0.00124721 0.005
   vertex 0.000833355 -0.00124721 -0.005
   vertex 0.00106066 -0.00106066 -0.005
  endloop
 endfacet
 facet normal 0.471394 -0.881922 0
  outer loop
   vertex 0.000833355 -0.00124721 -0.005
   vertex 0.000833355 -0.00124721 0.005
   vertex 0.000574025 -0.00138582 0.005
  endloop
 endfacet
 facet normal 0.471394 -0.881922 0
  outer loop
   vertex 0.000574025 -0.00138582 0.005
   vertex 0.000574025 -0.00138582 -0.005
   vertex 0.000833355 -0.00124721 -0.005
  endloop
 endfacet
 facet normal 0.290286 -0.95694 0
  outer loop
   vertex 0.000574025 -0.00138582 -0.005
   vertex 0.000574025 -0.00138582 0.005
   vertex 0.000292635 -0.00147118 0.005
  endloop
 endfacet
 facet normal 0.290286 -0.95694 0
  outer loop
   vertex 0.000292635 -0.00147118 0.005
   vertex 0.000292635 -0.00147118 -0.005
   vertex 0.000574025 -0.00138582 -0.005
  endloop
 endfacet
 facet normal 0.0980169 -0.995185 0
  outer loop
   vertex 0.000292635 -0.00147118 -0.005
   vertex 0.000292635 -0.00147118 0.005
   vertex -0 -0.0015 0.005
  endloop
 endfacet
 facet normal 0.0980169 -0.995185 0
  outer loop
   vertex -0 -0.0015 0.005
   vertex -0 -0.0015 -0.005
   vertex 0.000292635 -0.00147118 -0.005
  endloop
 endfacet
 facet normal -0.0980165 -0.995185 0
  outer loop
   vertex -0 -0.0015 -0.005
   vertex -0 -0.0015 0.005
   vertex -0.000292636 -0.00147118 0.005
  endloop
 endfacet
 facet normal -0.0980165 -0.995185 -0
  outer loop
   vertex -0.000292636 -0.00147118 0.005
   vertex -0.000292636 -0.00147118 -0.005
   vertex -0 -0.0015 -0.005
  endloop
 endfacet
 facet normal -0.290286 -0.95694 0
  outer loop
   vertex -0.000292636 -0.00147118 -0.005
   vertex -0.000292636 -0.00147118 0.005
   vertex -0.000574026 -0.00138582 0.005
  endloop
 endfacet
 facet normal -0.290286 -0.95694 -0
  outer loop
   vertex -0.000574026 -0.00138582 0.005
   vertex -0.000574026 -0.00138582 -0.005
   vertex -0.000292636 -0.00147118 -0.005
  endloop
 endfacet
 facet normal -0.471397 -0.881921 0
  outer loop
   vertex -0.000574026 -0.00138582 -0.005
   vertex -0.000574026 -0.00138582 0.005
   vertex -0.000833356 -0.0012472 0.005
  endloop
 endfacet
 facet normal -0.471397 -0.881921 -0
  outer loop
   vertex -0.000833356 -0.0012472 0.005
   vertex -0.000833356 -0.0012472 -0.005
   vertex -0.000574026 -0.00138582 -0.005
  endloop
 endfacet
 facet normal -0.634392 -0.773011 0
  outer loop
   vertex -0.000833356 -0.0012472 -0.005
   vertex -0.000833356 -0.0012472 0.005
   vertex -0.00106066 -0.00106066 0.005
  endloop
 endfacet
 facet normal -0.634392 -0.773011 -0
  outer loop
   vertex -0.00106066 -0.00106066 0.005
   vertex -0.00106066 -0.00106066 -0.005
   vertex -0.000833356 -0.0012472 -0.005
  endloop
 endfacet
 facet normal -0.773012 -0.634391 0
  outer loop
   vertex -0.00106066 -0.00106066 -0.005
   vertex -0.00106066 -0.00106066 0.005
   vertex -0.00124721 -0.000833354 0.005
  endloop
 endfacet
 facet normal -0.773012 -0.634391 -0
  outer loop
   vertex -0.00124721 -0.000833354 0.005
   vertex -0.00124721 -0.000833354 -0.005
   vertex -0.00106066 -0.00106066 -0.005
  endloop
 endfacet
 facet normal -0.881921 -0.471397 0
  outer loop
   vertex -0.00124721 -0.000833354 -0.005
   vertex -0.00124721 -0.000833354 0.005
   vertex -0.00138582 -0.000574024 0.005
  endloop
 endfacet
 facet normal -0.881921 -0.471397 -0
  outer loop
   vertex -0.00138582 -0.000574024 0.005
   vertex -0.00138582 -0.000574024 -0.005
   vertex -0.00124721 -0.000833354 -0.005
  endloop
 endfacet
 facet normal -0.956941 -0.290282 0
  outer loop
   vertex -0.00138582 -0.000574024 -0.005
   vertex -0.00138582 -0.000574024 0.005
   vertex -0.00147118 -0.000292634 0.005
  endloop
 endfacet
 facet normal -0.956941 -0.290282 -0
  outer loop
   vertex -0.00147118 -0.000292634 0.005
   vertex -0.00147118 -0.000292634 -0.005
   vertex -0.00138582 -0.000574024 -0.005
  endloop
 endfacet
 facet normal -0.995185 -0.0980168 0
  outer loop
   vertex -0.00147118 -0.000292634 -0.005
   vertex -0.00147118 -0.000292634 0.005
   vertex -0.0015 1e-09 0.005
  endloop
 endfacet
 facet normal -0.995185 -0.0980168 -0
  outer loop
   vertex -0.0015 1e-09 0.005
   vertex -0.0015 1e-09 -0.005
   vertex -0.00147118 -0.000292634 -0.005
  endloop
 endfacet
 facet normal -0.995185 0.0980165 0
  outer loop
   vertex -0.0015 1e-09 -0.005
   vertex -0.0015 1e-09 0.005
   vertex -0.00147118 0.000292637 0.005
  endloop
 endfacet
 facet normal -0.995185 0.0980165 0
  outer loop
   vertex -0.00147118 0.000292637 0.005
   vertex -0.00147118 0.000292637 -0.005
   vertex -0.0015 1e-09 -0.005
  endloop
 endfacet
 facet normal -0.95694 0.290286 0
  outer loop
   vertex -0.00147118 0.000292637 -0.005
   vertex -0.00147118 0.000292637 0.005
   vertex -0.00138582 0.000574027 0.005
  endloop
 endfacet
 facet normal -0.95694 0.290286 0
  outer loop
   vertex -0.00138582 0.000574027 0.005
   vertex -0.00138582 0.000574027 -0.005
   vertex -0.00147118 0.000292637 -0.005
  endloop
 endfacet
 facet normal -0.88192 0.4714 0
  outer loop
   vertex -0.00138582 0.000574027 -0.005
   vertex -0.00138582 0.000574027 0.005
   vertex -0.0012472 0.000833357 0.005
  endloop
 endfacet
 facet normal -0.88192 0.4714 0
  outer loop
   vertex -0.0012472 0.000833357 0.005
   vertex -0.0012472 0.000833357 -0.005
   vertex -0.00138582 0.000574027 -0.005
  endloop
 endfacet
 facet normal -0.773011 0.634392 0
  outer loop
   vertex -0.0012472 0.000833357 -0.005
   vertex -0.0012472 0.000833357 0.005
   vertex -0.00106066 0.00106066 0.005
  endloop
 endfacet
 facet normal -0.773011 0.634392 0
  outer loop
   vertex -0.00106066 0.00106066 0.005
   vertex -0.00106066 0.00106066 -0.005
   vertex -0.0012472 0.000833357 -0.005
  endloop
 endfacet
 facet normal -0.63439 0.773013 0
  outer loop
   vertex -0.00106066 0.00106066 -0.005
   vertex -0.00106066 0.00106066 0.005
   vertex -0.000833354 0.00124721 0.005
  endloop
 endfacet
 facet normal -0.63439 0.773013 0
  outer loop
   vertex -0.000833354 0.00124721 0.005
   vertex -0.000833354 0.00124721 -0.005
   vertex -0.00106066 0.00106066 -0.005
  endloop
 endfacet
 facet normal -0.471396 0.881922 0
  outer loop
   vertex -0.000833354 0.00124721 -0.005
   vertex -0.000833354 0.00124721 0.005
   vertex -0.000574023 0.00138582 0.005
  endloop
 endfacet
 facet normal -0.471396 0.881922 0
  outer loop
   vertex -0.000574023 0.00138582 0.005
   vertex -0.000574023 0.00138582 -0.005
   vertex -0.000833354 0.00124721 -0.005
  endloop
 endfacet
 facet normal -0.0980175 0.995185 0
  outer loop
   vertex 0 0.0015 0.005
   vertex 0 0.0015 -0.005
   vertex -0.000292633 0.00147118 -0.005
  endloop
 endfacet
 facet normal -0.0980175 0.995185 0
  outer loop
   vertex -0.000292633 0.00147118 -0.005
   vertex -0.000292633 0.00147118 0.005
   vertex 0 0.0015 0.005
  endloop
 endfacet
 facet normal -0.290282 0.956941 0
  outer loop
   vertex -0.000574023 0.00138582 -0.005
   vertex -0.000574023 0.00138582 0.005
   vertex -0.000292633 0.00147118 0.005
  endloop
 endfacet
 facet normal -0.290282 0.956941 0
  outer loop
   vertex -0.000292633 0.00147118 0.005
   vertex -0.000292633 0.00147118 -0.005
   vertex -0.000574023 0.00138582 -0.005
  endloop
 endfacet
endsolid wall
